inDegrees=no
num_controls=7
num_derivatives=13
num_iterations=126
num_multipliers=7
num_parameters=0
num_slacks=7
num_states=26
objective=0.516829
objective_accelerations=0.038757
objective_balance=0.002177
objective_effort=0.043225
objective_height=0.421002
objective_ligament=0.011669
solver_duration=1653.514288
status=Solve_Succeeded
success=true
DataType=double
version=3
OpenSimVersion=4.5
endheader
time	/jointset/ground_pelvis/pelvis_tilt/value	/jointset/ground_pelvis/pelvis_tx/value	/jointset/ground_pelvis/pelvis_ty/value	/jointset/hip_l/hip_flexion_l/value	/jointset/hip_l/hip_adduction_l/value	/jointset/hip_l/hip_rotation_l/value	/jointset/back/lumbar_extension/value	/jointset/patellofemoral_l/patellar_flexion_l/value	/jointset/knee_l/knee_flexion_l/value	/jointset/knee_l/knee_adduction_l/value	/jointset/knee_l/knee_rotation_l/value	/jointset/ankle_l/ankle_angle_l/value	/jointset/subtalar_l/subtalar_angle_l/value	/jointset/ground_pelvis/pelvis_tilt/speed	/jointset/ground_pelvis/pelvis_tx/speed	/jointset/ground_pelvis/pelvis_ty/speed	/jointset/hip_l/hip_flexion_l/speed	/jointset/hip_l/hip_adduction_l/speed	/jointset/hip_l/hip_rotation_l/speed	/jointset/back/lumbar_extension/speed	/jointset/patellofemoral_l/patellar_flexion_l/speed	/jointset/knee_l/knee_flexion_l/speed	/jointset/knee_l/knee_adduction_l/speed	/jointset/knee_l/knee_rotation_l/speed	/jointset/ankle_l/ankle_angle_l/speed	/jointset/subtalar_l/subtalar_angle_l/speed	/forceset/tau_hip_flexion_l	/forceset/tau_hip_adduction_l	/forceset/tau_hip_rotation_l	/forceset/tau_knee_flexion_l	/forceset/tau_ankle_angle_l	/forceset/tau_subtalar_angle_l	/forceset/tau_lumbar_extension	lambda_cid13_p0	lambda_cid13_p1	lambda_cid13_p2	lambda_cid13_p3	lambda_cid13_p4	lambda_cid13_p5	lambda_cid14_p0	/jointset/ground_pelvis/pelvis_tilt/accel	/jointset/ground_pelvis/pelvis_tx/accel	/jointset/ground_pelvis/pelvis_ty/accel	/jointset/hip_l/hip_flexion_l/accel	/jointset/hip_l/hip_adduction_l/accel	/jointset/hip_l/hip_rotation_l/accel	/jointset/back/lumbar_extension/accel	/jointset/patellofemoral_l/patellar_flexion_l/accel	/jointset/knee_l/knee_flexion_l/accel	/jointset/knee_l/knee_adduction_l/accel	/jointset/knee_l/knee_rotation_l/accel	/jointset/ankle_l/ankle_angle_l/accel	/jointset/subtalar_l/subtalar_angle_l/accel	gamma_cid13_p0	gamma_cid13_p1	gamma_cid13_p2	gamma_cid13_p3	gamma_cid13_p4	gamma_cid13_p5	gamma_cid14_p0
0.5	-0.1176493149653185	-0.05396795069829452	0.8269275136214893	0.8794269874169099	-0.3238693230715203	-0.1254765373865206	-0.7783694231904014	0.7788898577508969	0.7788898577511484	-0.1107140748008109	-0.1745311770810586	0.07057129656650656	-0.007214468276034355	-0.1982509714115669	-0.2055303035706634	-0.3307167766042061	1.464444198023803	-0.04174611904545199	0.451059039286865	-0.8435315438005381	1.412787907511164	1.412787907510831	0.1290767646149448	2.467703934041289e-05	0.2361948611072846	0.02932917181449721	-0.2818157521479249	0.02583020834175722	-0.002989268640398232	-0.2055957260991016	0.1095099981026371	0.04664687776293158	0.3300989772137654	-9.486027482628195	-20.09293906603681	4.456860154590434	-8.44818979338314	-703.6915274001785	-73.94352752961311	-15.24411839361756	0.2895697140911537	0.6346867860116358	-0.1125257162321054	-1.41755633477638	0.2197520599122552	-0.3361403011054876	1.716835715118577	-1.073255744218086	-1.073255744218067	-0.2752555523127568	0.02777739408530149	0.01000749067913286	0.2439662743532508	-3.807211541563661e-08	-5.354463689654093e-07	-4.568447166727851e-08	-7.289343149470931e-08	-6.7876232713118e-08	-5.646583844071265e-08	-7.019321230738499e-08
0.51	-0.1196170742417271	-0.05599139225828163	0.8236154515703619	0.8939983481952912	-0.324276134794219	-0.1209843180648767	-0.7867178419233195	0.7929618431914948	0.7929618431915678	-0.1094372218406062	-0.1745306689679421	0.07293309381366594	-0.00690952389487387	-0.1952691993537731	-0.1991459716305752	-0.3316201365387383	1.449614618565681	-0.03961612843220202	0.447312234313225	-0.8260505208130816	1.401395373837504	1.401395373837329	0.1262977432108409	6.677271274169367e-05	0.236118408743015	0.03164711983196267	-0.2883762320158337	0.02636032470557733	-0.003190795872269072	-0.2079520299700767	0.1096179002363449	0.04698765773785147	0.3364243854769244	-9.676696497114749	-20.16051068796497	4.413896951036084	-8.468426076154371	-707.6546475996474	-73.75985350077337	-14.73212179146902	0.307231611835632	0.6420978181314086	-0.0679293253045575	-1.547661485915094	0.2097080891924024	-0.4048991170307829	1.778987886121443	-1.20430949713201	-1.204309497108085	-0.2787311719603529	-0.009095894929812815	-0.02341732016885291	0.2239069093958852	-5.548999115827012e-08	-4.234785201623851e-07	1.097315381832478e-07	-4.423532532720561e-08	-7.639551659097087e-08	-4.669188167177862e-08	-7.555866999720704e-08
0.52	-0.1215540656655144	-0.05795063221484308	0.8202966182812409	0.9084150126321782	-0.3246616295053482	-0.1165317564972777	-0.7948883999672506	0.8069134918317233	0.8069134918316081	-0.1081880602419586	-0.174530044207863	0.07529273739314526	-0.006581760464748072	-0.1920974008874939	-0.192689982885533	-0.3320710242029085	1.433504929724155	-0.03748271673251789	0.4431274884780862	-0.8079594060031334	1.388720547436165	1.38872054743615	0.1235384923066951	4.80064302477238e-05	0.2357641275711914	0.03389298160753591	-0.2949367118837273	0.02689044106940954	-0.003392323104216932	-0.2103083338410457	0.1097258023700551	0.04732843771278441	0.3427497937400939	-9.870381869740259	-20.22831823021867	4.371844095769379	-8.513315483598429	-711.6860070035221	-73.59517162906367	-14.21731271498056	0.3275749957882606	0.6490181470024592	-0.02203126215971516	-1.673578211457468	0.2204362771990774	-0.4237284734052896	1.838854079616949	-1.329714289753708	-1.329714289753724	-0.2713014523211243	0.01560500290624719	-0.04555827083165341	0.2295490259748193	-9.149157006496843e-08	-2.476747840541596e-07	4.024388321572228e-07	8.823549752770494e-09	-1.01887618939653e-07	-3.307009997717192e-08	-8.984479420993712e-08
0.53	-0.1234584310548856	-0.05984503800636282	0.816975531851547	0.9226643323482692	-0.3250259470423383	-0.1121218311449239	-0.8028752421156307	0.8207320382135382	0.8207320382135238	-0.1069675059804262	-0.1745290172486065	0.07764738387072122	-0.006232132580119274	-0.1887482972458634	-0.1861875798785003	-0.3320706755198088	1.416161394088352	-0.03538308482210439	0.4387865990828265	-0.7893319090032744	1.374783354030593	1.374783354030696	0.1205761189094403	0.0001451881963415751	0.2351157963159563	0.03601613355643479	-0.3011029757890549	0.02729510739432838	-0.003608202267258785	-0.212771778917187	0.1098154094009108	0.04757945167983522	0.3486663900967274	-10.06379917121649	-20.25539643117865	4.321251997260499	-8.446470837501813	-715.5029915833043	-73.38731993054179	-13.70030424428741	0.3426732749575017	0.6513980471617794	0.02238281048915912	-1.794398705229045	0.2043258112522246	-0.4500079370761186	1.886264710663966	-1.456508630760286	-1.456508630742506	-0.3081513128546021	0.005057288085735324	-0.08187947300161685	0.2011888705881676	-1.098681369330285e-07	-1.366010060545059e-07	5.651145848590194e-07	3.981806408463068e-08	-1.132613707114956e-07	-2.018596390239123e-08	-9.597259935310729e-08
